<svg width="61" height="53" viewBox="0 0 61 53" fill="none" xmlns="http://www.w3.org/2000/svg">
<path d="M59.9258 48.4492L32.82 1.51291C32.2691 0.556723 31.2921 -0.0045166 30.1904 -0.0045166C29.0887 -0.0045166 28.1118 0.567116 27.5609 1.51291L0.455127 48.4492C-0.0957194 49.4054 -0.0957194 50.5382 0.455127 51.484C1.00597 52.4402 1.99334 53.0015 3.08464 53.0015H57.2858C58.3875 53.0015 59.3645 52.4298 59.9154 51.484C60.4662 50.5278 60.4662 49.395 59.9154 48.4492H59.9258ZM58.1277 50.4447C58.0446 50.5902 57.7951 50.9228 57.2962 50.9228H3.09503C2.59615 50.9228 2.34671 50.5902 2.26357 50.4447C2.18042 50.2992 2.01413 49.9146 2.26357 49.4885L29.359 2.55224C29.6084 2.11572 30.0241 2.07415 30.1904 2.07415C30.3567 2.07415 30.7725 2.11572 31.0219 2.55224L58.1173 49.4885C58.3668 49.925 58.2005 50.2992 58.1173 50.4447H58.1277ZM31.0947 6.8239C30.7205 6.17951 29.6604 6.17951 29.2966 6.8239L5.93241 47.2851C5.74533 47.6073 5.74533 48.0023 5.93241 48.3245C6.11949 48.6467 6.46247 48.8441 6.83663 48.8441H53.5546C53.9288 48.8441 54.2718 48.6467 54.4589 48.3245C54.6459 48.0023 54.6459 47.6073 54.4589 47.2851L31.0947 6.8239ZM8.63468 46.7655L30.1904 9.42223L51.7462 46.7655H8.63468ZM27.0724 22.3411V35.8525C25.4095 37.0893 24.6404 39.2095 25.1497 41.2986C25.5966 43.1382 27.0828 44.614 28.9328 45.0506C29.3486 45.1545 29.7747 45.1961 30.1904 45.1961C31.3545 45.1961 32.4874 44.8115 33.4124 44.084C34.67 43.0966 35.3871 41.6104 35.3871 40.0098C35.3871 38.4092 34.6076 36.8294 33.3084 35.8525V22.3411C33.3084 20.6262 31.9053 19.2231 30.1904 19.2231C28.4755 19.2231 27.0724 20.6262 27.0724 22.3411ZM32.1236 42.4626C31.3545 43.0654 30.3983 43.2733 29.4109 43.0343C28.33 42.7744 27.4362 41.8806 27.1764 40.8101C26.8334 39.4174 27.4258 38.0039 28.6314 37.3075C28.9536 37.1205 29.1511 36.7775 29.1511 36.4033V28.9825C29.359 28.7954 29.702 28.5667 30.1904 28.5667C30.2216 28.5667 30.7829 28.5667 31.2298 28.9721V36.4033C31.2298 36.7775 31.4272 37.1205 31.7494 37.3075C32.7056 37.8584 33.3084 38.8977 33.3084 39.9994C33.3084 40.9556 32.8719 41.8494 32.1236 42.4522V42.4626ZM31.2298 22.3411V26.6648C30.7309 26.5193 30.3256 26.4985 30.1904 26.4985C29.8059 26.4985 29.4629 26.5608 29.1511 26.6648V22.3411C29.1511 21.7695 29.6188 21.3018 30.1904 21.3018C30.7621 21.3018 31.2298 21.7695 31.2298 22.3411ZM34.3478 28.5771C34.3478 28.0055 34.8155 27.5378 35.3871 27.5378H37.4658C38.0374 27.5378 38.5051 28.0055 38.5051 28.5771C38.5051 29.1488 38.0374 29.6165 37.4658 29.6165H35.3871C34.8155 29.6165 34.3478 29.1488 34.3478 28.5771ZM34.3478 32.7345C34.3478 32.1628 34.8155 31.6951 35.3871 31.6951H36.4264C36.9981 31.6951 37.4658 32.1628 37.4658 32.7345C37.4658 33.3061 36.9981 33.7738 36.4264 33.7738H35.3871C34.8155 33.7738 34.3478 33.3061 34.3478 32.7345ZM22.9151 29.6165C22.3435 29.6165 21.8758 29.1488 21.8758 28.5771C21.8758 28.0055 22.3435 27.5378 22.9151 27.5378H24.9938C25.5654 27.5378 26.0331 28.0055 26.0331 28.5771C26.0331 29.1488 25.5654 29.6165 24.9938 29.6165H22.9151ZM24.9938 33.7738H23.9544C23.3828 33.7738 22.9151 33.3061 22.9151 32.7345C22.9151 32.1628 23.3828 31.6951 23.9544 31.6951H24.9938C25.5654 31.6951 26.0331 32.1628 26.0331 32.7345C26.0331 33.3061 25.5654 33.7738 24.9938 33.7738Z" fill="#151515"/>
</svg>
