<svg width="68" height="62" viewBox="0 0 68 62" fill="none" xmlns="http://www.w3.org/2000/svg">
<path d="M30.9992 21.9248C33.0936 21.9248 34.827 20.1914 34.827 18.097C34.827 16.0025 33.0936 14.2692 30.9992 14.2692C28.9047 14.2692 27.1714 16.0025 27.1714 18.097C27.1714 20.1914 28.9047 21.9248 30.9992 21.9248ZM30.9992 16.5081C31.9381 16.5081 32.6603 17.2303 32.6603 18.1692C32.6603 19.1081 31.9381 19.8303 30.9992 19.8303C30.0603 19.8303 29.3381 19.1081 29.3381 18.1692C29.3381 17.2303 30.1325 16.5081 30.9992 16.5081Z" fill="#151515"/>
<path d="M37.5714 31.386C37.5714 27.7748 34.6103 24.8137 30.9991 24.8137C27.388 24.8137 24.4269 27.7748 24.4269 31.386C24.4269 34.9971 27.388 37.9582 30.9991 37.9582C34.6103 37.9582 37.5714 34.9971 37.5714 31.386ZM30.9991 35.7916C28.5436 35.7916 26.5936 33.8415 26.5936 31.386C26.5936 28.9304 28.5436 26.9804 30.9991 26.9804C33.4547 26.9804 35.4047 28.9304 35.4047 31.386C35.4047 33.8415 33.4547 35.7916 30.9991 35.7916Z" fill="#151515"/>
<path d="M22.0435 28.4248C22.3324 27.4859 22.2602 26.4026 21.8269 25.5359C21.3935 24.597 20.5991 23.947 19.588 23.6581C17.5657 23.0081 15.4713 24.0915 14.8213 26.1137C14.5324 27.0526 14.6046 28.136 15.038 29.0026C15.4713 29.9415 16.2657 30.5915 17.2769 30.8804C17.638 31.0249 18.0713 31.0971 18.4324 31.0971C20.0213 31.0971 21.4658 30.086 22.0435 28.4248ZM19.9491 27.7748C19.6602 28.6415 18.7213 29.0748 17.8546 28.8582C16.988 28.5693 16.5546 27.6304 16.7713 26.7637C16.9157 26.3304 17.2046 26.0415 17.5657 25.8248C17.7824 25.6804 18.0713 25.6804 18.288 25.6804C18.4324 25.6804 18.6491 25.6804 18.7935 25.7526C19.7324 25.9693 20.238 26.9082 19.9491 27.7748Z" fill="#151515"/>
<path d="M25.438 39.0415C24.6436 38.4637 23.6325 38.1748 22.6214 38.3915C21.6102 38.536 20.7436 39.1137 20.1658 39.9082C19.588 40.7026 19.2991 41.7138 19.5158 42.7249C19.6602 43.736 20.238 44.6027 21.0325 45.1804C21.6825 45.686 22.4769 45.9027 23.2714 45.9027C23.488 45.9027 23.7047 45.9027 23.8491 45.8304C24.8603 45.686 25.7269 45.1082 26.3047 44.3138C26.8825 43.5193 27.1714 42.5082 26.9547 41.4971C26.8103 40.5582 26.3047 39.6193 25.438 39.0415ZM24.5714 43.086C24.2825 43.4471 23.9214 43.6638 23.488 43.736C23.0547 43.8082 22.6214 43.736 22.2602 43.4471C21.538 42.9415 21.3936 41.8582 21.8991 41.136C22.188 40.7026 22.6936 40.486 23.1991 40.486C23.5603 40.486 23.8491 40.5582 24.138 40.7749C24.9325 41.3526 25.0769 42.3638 24.5714 43.086Z" fill="#151515"/>
<path d="M36.5602 39.0415C34.8269 40.2693 34.4658 42.6526 35.6936 44.3859C36.2714 45.1804 37.138 45.7582 38.1491 45.9026C38.3658 45.9026 38.5825 45.9748 38.7269 45.9748C39.5214 45.9748 40.3158 45.7582 40.9658 45.2526C42.6269 44.0248 43.0603 41.6415 41.8325 39.9081C40.6769 38.1748 38.2936 37.8137 36.5602 39.0415ZM39.8103 43.447C39.4491 43.7359 39.0158 43.8082 38.5825 43.7359C38.1491 43.6637 37.788 43.447 37.4991 43.0859C36.9936 42.3637 37.138 41.3526 37.8602 40.7748C38.1491 40.5581 38.5103 40.4859 38.7991 40.4859C39.3047 40.4859 39.8103 40.7026 40.0992 41.1359C40.6769 41.8582 40.5325 42.9415 39.8103 43.447Z" fill="#151515"/>
<path d="M45.3714 23.8748C44.4325 23.4415 43.4214 23.297 42.4825 23.6582C41.5436 23.9471 40.7492 24.6693 40.2436 25.536C39.8103 26.4748 39.6658 27.486 40.0269 28.4249C40.3158 29.3637 41.0381 30.1582 41.9047 30.6638C42.4825 30.9526 43.0603 31.0971 43.6381 31.0971C43.9992 31.0971 44.4325 31.0249 44.7936 30.8804C45.7325 30.5915 46.527 29.8693 47.0325 29.0026C47.4659 28.0637 47.6103 27.0526 47.2492 26.1137C46.9603 25.1748 46.3103 24.3804 45.3714 23.8748ZM45.0825 28.0637C44.8658 28.4249 44.577 28.7137 44.1436 28.8582C43.7103 29.0026 43.277 28.9304 42.9158 28.786C42.5547 28.5693 42.2658 28.2804 42.1214 27.8471C41.9769 27.4137 42.0492 26.9804 42.1936 26.6193C42.4103 26.2582 42.6992 25.9693 43.1325 25.8248C43.277 25.7526 43.4936 25.7526 43.6381 25.7526C43.927 25.7526 44.1436 25.8248 44.3603 25.8971C44.7214 26.1137 45.0103 26.4026 45.1547 26.836C45.3714 27.1971 45.2992 27.6304 45.0825 28.0637Z" fill="#151515"/>
<path d="M51.3659 24.7415C49.6326 19.3248 45.8047 14.847 40.7492 12.247C35.6214 9.71918 29.8435 9.21362 24.4269 11.0192C13.1601 14.7025 7.0212 26.7637 10.7046 38.0305C13.6657 47.0583 22.0435 52.8361 31.0713 52.8361C33.238 52.8361 35.4769 52.475 37.6436 51.7528C43.0603 50.0194 47.5381 46.1916 50.1381 41.136C52.7381 36.0082 53.1715 30.2304 51.3659 24.7415ZM36.9936 49.7305C26.8824 52.9805 16.049 47.4916 12.7268 37.3804C9.47677 27.2693 14.9657 16.4359 25.0769 13.1136C27.0269 12.4636 29.0491 12.1748 31.0713 12.1748C34.0325 12.1748 37.0658 12.897 39.8103 14.2692C44.3603 16.5803 47.7548 20.5526 49.3437 25.4637C50.9326 30.3749 50.4992 35.5749 48.1881 40.1249C45.877 44.6749 41.8325 48.1416 36.9936 49.7305Z" fill="#151515"/>
<path d="M56.9994 6.39694C56.566 5.9636 55.916 5.9636 55.4827 6.39694L52.3049 9.57473C44.2159 1.77469 32.3714 -1.04199 21.6103 2.42469C5.64906 7.62472 -3.08988 24.8137 2.11015 40.7749C4.56572 48.5027 9.98242 54.7861 17.2047 58.4695C21.538 60.7084 26.2325 61.7917 30.9992 61.7917C34.177 61.7917 37.3548 61.2861 40.4604 60.275C45.2271 58.7583 49.4882 56.0139 52.9549 52.475L56.8549 56.375C57.0716 56.5917 57.3605 56.6639 57.6494 56.6639C57.9382 56.6639 58.2271 56.5194 58.4438 56.3028C60.6105 53.9194 62.416 51.2472 63.9327 48.4305C71.0105 34.3471 68.2661 17.447 56.9994 6.39694ZM39.7381 58.2528C32.5881 60.5639 24.9325 59.9861 18.1436 56.5194C11.4991 53.125 6.44351 47.2749 4.13239 40.1249C-0.706529 25.3193 7.45463 9.28584 22.2603 4.51915C32.227 1.26913 43.2771 3.94137 50.716 11.1636L47.8993 13.9803C47.6826 14.197 47.6104 14.4859 47.6104 14.7748C47.6104 15.0637 47.7549 15.3525 47.9715 15.5692C55.266 22.647 56.9994 33.5526 52.3771 42.5805C51.5104 44.2416 50.4271 45.8305 49.1993 47.2749C48.8382 47.7083 48.8382 48.3583 49.2715 48.7194L51.5104 50.9583C48.1882 54.2805 44.2159 56.8083 39.7381 58.2528ZM61.9105 47.4194C60.6827 49.8027 59.2383 51.9694 57.5049 53.9917L51.4382 47.9249C52.5215 46.5527 53.4604 45.1083 54.2549 43.5194C59.166 33.9138 57.5049 22.5026 50.2104 14.7025L56.2771 8.63584C66.1716 19.1081 68.4827 34.5638 61.9105 47.4194Z" fill="#151515"/>
</svg>
