<svg width="61" height="55" viewBox="0 0 61 55" fill="none" xmlns="http://www.w3.org/2000/svg">
<path d="M45.9442 45.9683C41.7386 50.1738 36.205 52.791 30.2861 53.374C24.3673 53.9569 18.4294 52.4696 13.4842 49.1653C8.53902 45.861 4.89254 40.9443 3.16606 35.2529C1.43959 29.5615 1.73995 23.4475 4.01597 17.9527C6.29198 12.458 10.4028 7.92235 15.6481 5.11871C20.8933 2.31507 26.9484 1.41688 32.7816 2.57719C38.6149 3.73749 43.8653 6.88449 47.6384 11.482C51.4114 16.0795 53.4737 21.843 53.4737 27.7905" stroke="#151515" stroke-width="2.3"/>
<path d="M48.6433 28.3517L53.2055 32.9138L59.49 26.6293" stroke="#151515" stroke-width="2.3"/>
<path d="M26.3247 17.1346V28.0856L34.3631 36.1239" stroke="#151515" stroke-width="2.3"/>
</svg>
