<svg width="24" height="24" viewBox="0 0 24 24" fill="none" xmlns="http://www.w3.org/2000/svg">
<path d="M0.314344 7.61676C0.893545 5.46769 2.96269 3.17554 3.83231 3.15684C5.25935 3.12067 6.89976 5.6309 7.76794 7.16788H7.76812C7.95604 7.50301 8.03909 7.88685 8.00656 8.26962C7.97421 8.65255 7.82773 9.01678 7.58601 9.31552L6.28929 10.9168V10.9167C6.11827 11.1282 6.01685 11.3876 5.99886 11.6591C5.98087 11.9306 6.04721 12.2009 6.18878 12.4333C6.86215 13.5545 7.67454 14.5862 8.60631 15.5038C9.52413 16.4358 10.5558 17.2482 11.677 17.9216C11.9093 18.0631 12.1797 18.1295 12.4513 18.1115C12.7228 18.0935 12.9819 17.9921 13.1935 17.8211L14.7948 16.5243C15.0936 16.2826 15.4578 16.1361 15.8407 16.1036C16.2235 16.0712 16.6073 16.1543 16.9425 16.3422C18.4794 17.2104 20.9895 18.8508 20.9535 20.2779C20.9346 21.1475 18.6427 23.2166 16.4936 23.7958C12.8796 24.7723 9.14015 22.1193 5.56557 18.5444C1.99089 14.9699 -0.662393 11.2306 0.314186 7.61643L0.314344 7.61676ZM22.5198 12.2726H23.3015V12.2728C23.3705 12.2732 23.4367 12.2459 23.4852 12.1968C23.5337 12.1478 23.5604 12.0812 23.5592 12.0124C23.4886 8.99492 22.2584 6.12032 20.1242 3.98617C17.9899 1.8518 15.1153 0.621792 12.0981 0.551073C12.029 0.549982 11.9625 0.576698 11.9136 0.625226C11.8645 0.673752 11.8373 0.739903 11.8376 0.808785V1.59047C11.8385 1.73441 11.9541 1.85145 12.0981 1.85418C14.77 1.92415 17.3132 3.01677 19.2035 4.90688C21.0934 6.79681 22.1862 9.3401 22.2562 12.0119C22.2591 12.1558 22.376 12.2716 22.5201 12.2727L22.5198 12.2726ZM19.3933 12.2726H20.175V12.2728C20.2438 12.2733 20.3102 12.2459 20.3585 12.1966C20.4069 12.1476 20.4332 12.0809 20.4316 12.012C20.3627 9.82365 19.4625 7.74399 17.9143 6.19579C16.366 4.64773 14.2862 3.74755 12.0981 3.67864C12.0292 3.67701 11.9625 3.70354 11.9134 3.75188C11.8644 3.80023 11.8371 3.86638 11.8376 3.93526V4.71694C11.8391 4.86107 11.9541 4.97811 12.0981 4.9821C13.9409 5.05026 15.6898 5.81268 16.994 7.11667C18.298 8.42065 19.0604 10.1696 19.1286 12.0126C19.1324 12.1565 19.2496 12.2716 19.3936 12.273L19.3933 12.2726ZM12.098 6.80768C12.0291 6.80513 11.9624 6.83094 11.9132 6.87892C11.8639 6.92708 11.8367 6.99323 11.8376 7.06212V7.8438V7.84362C11.8401 7.98792 11.9541 8.10532 12.098 8.11223C13.1112 8.17711 14.0661 8.60875 14.784 9.32665C15.5018 10.0447 15.9335 10.9996 15.9982 12.0128C16.0053 12.1567 16.1227 12.2705 16.2668 12.273H17.0485C17.1174 12.2739 17.1835 12.2467 17.2315 12.1974C17.2797 12.1482 17.3055 12.0815 17.3029 12.0126C17.2364 10.6537 16.6668 9.36806 15.7047 8.4059C14.7425 7.44375 13.4569 6.87399 12.098 6.80765L12.098 6.80768Z" fill="#151515"/>
</svg>
