<svg width="55" height="56" viewBox="0 0 55 56" fill="none" xmlns="http://www.w3.org/2000/svg">
<rect x="1.46777" y="1.76172" width="52.4232" height="52.4232" stroke="#161616" stroke-width="2"/>
<path d="M37.4124 20.6609L34.5051 23.5386C32.6653 21.5906 30.5205 20.6166 28.0708 20.6166C25.9358 20.6166 24.1452 21.325 22.699 22.7417C21.2626 24.1584 20.5444 25.8802 20.5444 27.9069C20.5444 30.0025 21.2921 31.7783 22.7875 33.2344C24.283 34.6905 26.1277 35.4185 28.3216 35.4185C29.7482 35.4185 30.9485 35.1185 31.9225 34.5183C32.9064 33.9182 33.6984 32.9786 34.2985 31.6996H28.0117V27.8183H38.9324L38.9619 28.7333C38.9619 30.6321 38.47 32.4326 37.4861 34.1346C36.5023 35.8367 35.2282 37.1353 33.6639 38.0306C32.0996 38.9259 30.2647 39.3736 28.1593 39.3736C25.9063 39.3736 23.8943 38.8866 22.1234 37.9126C20.3624 36.9287 18.9653 35.5317 17.9323 33.7214C16.9091 31.9111 16.3975 29.9582 16.3975 27.8626C16.3975 24.9898 17.3469 22.4908 19.2457 20.3657C21.4987 17.8372 24.4305 16.573 28.0412 16.573C29.9302 16.573 31.6962 16.9223 33.3392 17.6208C34.7265 18.2111 36.0842 19.2245 37.4124 20.6609Z" fill="#151515"/>
</svg>
