<svg width="43" height="43" viewBox="0 0 43 43" fill="none" xmlns="http://www.w3.org/2000/svg">
<circle cx="21.0545" cy="21.7319" r="21.0049" fill="#65C84C"/>
<path d="M17.3401 28.8571C18.6082 29.5841 20.073 29.9969 21.6344 29.9969C26.4142 29.9969 30.2986 26.1099 30.2986 21.3309C30.2986 16.552 26.4142 12.6649 21.6344 12.6649H21.6307C16.851 12.6649 12.9666 16.5509 12.9666 21.3309C12.9666 23.0102 13.4469 24.5834 14.2799 25.9135L13.7998 27.8195L13.2968 29.8166L15.3006 29.3411L17.3401 28.8571Z" fill="#65C84C" stroke="white" stroke-width="2.5"/>
<path d="M25.3247 24.9631L25.2618 25.026C24.9481 25.3422 24.5277 25.53 24.0829 25.5526H23.7724C22.1298 25.5526 20.8094 24.9395 19.4144 23.5484C17.9328 22.0668 17.3356 20.6718 17.4181 18.8798H17.418C17.4406 18.4349 17.6284 18.0145 17.9446 17.7008L18.0075 17.6379C18.4053 17.2385 18.9677 17.049 19.5261 17.1263C20.0845 17.2035 20.5743 17.5385 20.8488 18.0309L20.9353 18.1881H20.9352C21.0443 18.387 21.0861 18.6158 21.0542 18.8405C21.0224 19.065 20.9185 19.2733 20.7583 19.4339L20.2318 19.9605C20.5358 20.5456 20.934 21.0767 21.4107 21.5324C21.8664 22.0091 22.3974 22.4073 22.9826 22.7113L23.5052 22.1925C23.6696 22.0311 23.8826 21.9282 24.1114 21.8997C24.3401 21.8713 24.5717 21.919 24.7706 22.0354L24.9278 22.1218C25.4203 22.3963 25.7553 22.886 25.8325 23.4445C25.9098 24.003 25.7203 24.5652 25.3208 24.963L25.3247 24.9631Z" fill="white"/>
</svg>
