<svg width="55" height="55" viewBox="0 0 55 55" fill="none" xmlns="http://www.w3.org/2000/svg">
<rect x="1.04492" y="1.21094" width="52.4232" height="52.4232" stroke="#161616" stroke-width="2"/>
<path d="M21.9824 36.3112C23.5441 37.1945 25.3432 37.6951 27.259 37.6951C33.1931 37.6951 38.0153 32.8695 38.0153 26.9365C38.0153 21.0035 33.1931 16.1779 27.259 16.1779H27.2544C21.3205 16.1779 16.4981 21.0022 16.4981 26.9365C16.4981 28.9969 17.0806 30.9289 18.0927 32.5681L17.5221 34.8336L16.8427 37.531L19.5491 36.8887L21.9824 36.3112Z" fill="white" stroke="#151515" stroke-width="3.3766"/>
<path d="M31.774 31.3789L31.6971 31.4559C31.3135 31.8426 30.7993 32.0723 30.2552 32.0999H29.8755C27.8665 32.0999 26.2515 31.3501 24.5453 29.6486C22.7333 27.8365 22.0028 26.1303 22.1037 23.9386H22.1036C22.1312 23.3945 22.3609 22.8803 22.7477 22.4967L22.8246 22.4197C23.3111 21.9312 23.999 21.6994 24.6819 21.794C25.3649 21.8884 25.964 22.2981 26.2997 22.9004L26.4055 23.0926H26.4054C26.5388 23.3359 26.59 23.6158 26.551 23.8905C26.512 24.1652 26.385 24.4199 26.1891 24.6163L25.545 25.2604C25.9169 25.9761 26.404 26.6256 26.987 27.1829C27.5443 27.7659 28.1938 28.253 28.9095 28.6249L29.5487 27.9904C29.7498 27.7928 30.0103 27.667 30.2901 27.6322C30.5698 27.5975 30.8531 27.6557 31.0964 27.7981L31.2887 27.9039C31.891 28.2396 32.3007 28.8386 32.3951 29.5216C32.4896 30.2046 32.2579 30.8923 31.7693 31.3789L31.774 31.3789Z" fill="#151515"/>
</svg>
